<svg width="363" height="122" viewBox="0 0 363 122" fill="none" xmlns="http://www.w3.org/2000/svg">
<g filter="url(#filter0_d_362_27)">
<path d="M11.616 106.104C9.12 106.104 7.424 105.368 6.528 103.896C5.568 102.424 5.088 100.632 5.088 98.52C5.088 96.856 5.28 95.128 5.664 93.336C6.048 91.608 6.464 90.04 6.912 88.632C9.152 81.208 12.192 74.232 16.032 67.704C19.936 61.112 24.544 55 29.856 49.368C29.536 48.92 29.056 48.44 28.416 47.928C27.84 47.416 27.552 46.904 27.552 46.392C27.552 45.752 27.744 45.336 28.128 45.144C28.512 44.888 28.96 44.76 29.472 44.76C29.6 44.76 30.112 44.824 31.008 44.952C31.968 45.016 32.832 45.336 33.6 45.912L38.688 40.632C39.072 40.248 39.424 39.864 39.744 39.48C40.064 39.032 40.416 38.648 40.8 38.328C41.12 38.008 41.44 37.752 41.76 37.56C42.144 37.368 42.56 37.272 43.008 37.272C43.712 37.272 44.224 37.528 44.544 38.04C44.864 38.488 45.024 39 45.024 39.576C45.024 40.216 44.864 40.792 44.544 41.304C44.224 41.752 43.808 42.232 43.296 42.744C42.272 43.768 41.12 44.824 39.84 45.912C38.56 47 37.6 47.96 36.96 48.792C37.984 49.752 38.816 50.68 39.456 51.576C40.096 52.408 40.64 53.464 41.088 54.744C41.28 55.384 41.44 56.024 41.568 56.664C41.696 57.304 41.76 57.976 41.76 58.68C41.76 61.112 41.088 63.384 39.744 65.496C38.464 67.608 36.736 69.464 34.56 71.064C32.384 72.6 30.016 73.816 27.456 74.712C24.896 75.608 22.4 76.056 19.968 76.056C19.328 76.056 18.656 75.928 17.952 75.672C17.312 75.48 16.736 75.16 16.224 74.712C15.392 76.12 14.56 77.912 13.728 80.088C12.896 82.328 12.128 84.632 11.424 87C10.72 89.432 10.176 91.704 9.792 93.816C9.344 95.992 9.12 97.72 9.12 99C9.12 100.344 9.344 101.4 9.792 102.168C10.24 103 11.008 103.416 12.096 103.416C12.288 103.416 12.8 103.384 13.632 103.32C14.528 103.32 15.328 103.128 16.032 102.744C16.16 103.64 15.776 104.408 14.88 105.048C13.984 105.752 12.896 106.104 11.616 106.104ZM22.944 73.848C23.264 73.848 23.552 73.848 23.808 73.848C24.128 73.784 24.416 73.72 24.672 73.656C26.848 73.272 28.896 72.504 30.816 71.352C32.736 70.2 34.272 68.696 35.424 66.84C36.64 64.92 37.248 62.744 37.248 60.312C37.248 58.84 36.896 57.272 36.192 55.608C35.552 53.88 34.496 52.568 33.024 51.672C30.656 54.104 28 57.112 25.056 60.696C22.176 64.216 19.584 68.056 17.28 72.216C17.6 71.896 17.888 71.736 18.144 71.736C18.464 71.736 18.752 71.864 19.008 72.12C19.328 72.376 19.52 72.568 19.584 72.696C20.352 73.464 21.472 73.848 22.944 73.848ZM60.8813 76.056C59.0252 76.056 57.6492 75.32 56.7532 73.848C55.8572 72.312 55.4092 70.744 55.4092 69.144C55.4092 66.968 55.9852 64.632 57.1372 62.136C58.2892 59.576 59.6652 57.144 61.2653 54.84C62.9292 52.536 64.4012 50.648 65.6813 49.176C66.0013 48.792 66.4173 48.6 66.9293 48.6C67.5053 48.6 68.0813 48.824 68.6573 49.272C70.0013 48.312 71.5373 47.448 73.2653 46.68C75.0573 45.912 76.7853 45.528 78.4493 45.528C81.3293 45.528 82.7693 47 82.7693 49.944C82.7693 52.76 82.0653 55.352 80.6573 57.72C79.3133 60.088 77.8092 62.392 76.1453 64.632C75.6973 65.208 75.2493 65.752 74.8013 66.264C74.4173 66.776 73.9693 67.288 73.4573 67.8C76.2733 67.032 78.7373 65.752 80.8492 63.96C82.9613 62.168 85.0413 60.312 87.0893 58.392C87.3453 58.136 87.5693 57.944 87.7613 57.816C88.0173 57.624 88.3373 57.528 88.7213 57.528C89.0413 57.528 89.2013 57.752 89.2013 58.2C89.2013 58.264 89.1053 58.424 88.9133 58.68C88.7213 58.936 88.5933 59.128 88.5293 59.256C86.4173 61.816 83.7933 64.216 80.6573 66.456C77.5853 68.632 74.3533 69.976 70.9612 70.488C69.7453 71.704 68.2093 72.952 66.3533 74.232C64.4973 75.448 62.6732 76.056 60.8813 76.056ZM68.3693 68.472C68.6252 68.472 68.8492 68.472 69.0413 68.472C69.2973 68.472 69.5533 68.44 69.8093 68.376C71.0893 66.84 72.4013 65.016 73.7453 62.904C75.1533 60.792 76.3373 58.616 77.2972 56.376C78.2573 54.072 78.7373 51.992 78.7373 50.136C78.7373 48.984 78.1933 48.408 77.1052 48.408C76.0173 48.408 74.7693 48.728 73.3613 49.368C71.9533 50.008 70.7693 50.68 69.8093 51.384V51.672C69.8093 52.312 69.2973 53.24 68.2733 54.456C67.3133 55.608 66.2573 56.792 65.1053 58.008C64.0173 59.224 63.2173 60.248 62.7053 61.08C62.5133 63.192 62.9293 64.952 63.9532 66.36C64.9773 67.768 66.4493 68.472 68.3693 68.472ZM60.9772 74.424C62.1932 74.424 63.3772 73.976 64.5292 73.08C65.7453 72.184 66.7693 71.352 67.6013 70.584C66.0652 70.456 64.6572 69.944 63.3773 69.048C62.1613 68.088 61.0412 67.032 60.0172 65.88C59.8252 66.264 59.5692 67 59.2492 68.088C58.9293 69.176 58.7693 70.264 58.7693 71.352C58.7693 72.184 58.9293 72.92 59.2492 73.56C59.5692 74.136 60.1452 74.424 60.9772 74.424ZM107.822 76.152C106.798 76.152 105.71 75.64 104.558 74.616C103.47 73.528 102.926 72.472 102.926 71.448C102.926 70.168 103.374 68.728 104.27 67.128C105.166 65.464 106.222 63.864 107.438 62.328C108.654 60.792 109.71 59.48 110.606 58.392C111.502 57.24 111.95 56.472 111.95 56.088V55.896C111.374 55.384 110.83 54.904 110.318 54.456C109.806 53.944 109.102 53.688 108.206 53.688C107.566 53.688 106.734 54.072 105.71 54.84C104.75 55.608 103.758 56.504 102.734 57.528C101.71 58.552 100.782 59.512 99.9502 60.408C99.1182 61.304 98.5102 61.912 98.1262 62.232C97.8702 62.488 97.6142 62.648 97.3582 62.712C97.1662 62.776 97.0062 62.808 96.8782 62.808C96.6222 62.808 96.4942 62.68 96.4942 62.424C96.4942 62.168 96.6222 61.912 96.8782 61.656C97.9022 60.312 99.0862 58.936 100.43 57.528C101.774 56.12 102.99 54.84 104.078 53.688C105.166 52.472 105.806 51.608 105.998 51.096C106.51 49.624 107.022 48.312 107.534 47.16C108.11 46.008 109.006 44.92 110.222 43.896C110.734 43.384 111.342 42.968 112.046 42.648C112.75 42.328 113.454 42.168 114.158 42.168C114.798 42.168 115.31 42.36 115.694 42.744C116.142 43.064 116.366 43.576 116.366 44.28C116.366 45.048 116.014 45.816 115.31 46.584C114.67 47.352 113.902 48.088 113.006 48.792C112.11 49.432 111.31 50.008 110.606 50.52C109.966 51.032 109.678 51.448 109.742 51.768C110.126 52.024 110.862 52.344 111.95 52.728C113.102 53.112 113.902 53.304 114.35 53.304C114.862 53.304 115.342 53.208 115.79 53.016C116.238 52.824 116.686 52.728 117.134 52.728C117.774 52.728 118.414 52.92 119.054 53.304C119.694 53.688 120.014 54.264 120.014 55.032C120.014 55.672 119.758 56.28 119.246 56.856C118.798 57.368 118.318 57.816 117.806 58.2C117.038 58.776 116.014 59.64 114.734 60.792C113.454 61.944 112.142 63.224 110.798 64.632C109.518 66.04 108.398 67.448 107.438 68.856C106.542 70.2 106.094 71.384 106.094 72.408C106.094 72.664 106.158 72.92 106.286 73.176C106.35 73.24 106.478 73.272 106.67 73.272C107.95 73.272 109.39 72.696 110.99 71.544C112.59 70.392 114.19 68.984 115.79 67.32C117.454 65.656 118.99 64.024 120.398 62.424C121.87 60.76 123.118 59.48 124.142 58.584C124.27 58.456 124.43 58.328 124.622 58.2C124.814 58.072 125.006 58.008 125.198 58.008C125.518 58.008 125.678 58.232 125.678 58.68C125.678 58.936 125.23 59.576 124.334 60.6C123.502 61.624 122.414 62.84 121.07 64.248C119.726 65.656 118.318 67.096 116.846 68.568C115.438 70.04 114.126 71.352 112.91 72.504C111.694 73.592 110.83 74.36 110.318 74.808C109.614 75.384 109.102 75.736 108.782 75.864C108.462 76.056 108.142 76.152 107.822 76.152ZM141.121 77.496C139.969 77.496 138.977 77.112 138.145 76.344C137.377 75.576 136.769 74.648 136.321 73.56C135.937 72.408 135.745 71.32 135.745 70.296C135.745 69.272 135.873 68.28 136.129 67.32C136.385 66.296 136.737 65.304 137.185 64.344C138.017 62.488 139.009 60.44 140.161 58.2C141.377 55.896 142.657 53.56 144.001 51.192C145.409 48.76 146.817 46.552 148.225 44.568C147.137 45.016 145.857 45.528 144.385 46.104C142.977 46.616 142.049 46.872 141.601 46.872C141.345 46.808 141.153 46.616 141.025 46.296C140.961 45.976 140.929 45.656 140.929 45.336C140.929 43.992 141.569 43.096 142.849 42.648C144.833 42.008 147.489 41.432 150.817 40.92C153.249 37.72 155.873 34.52 158.689 31.32C161.569 28.12 164.481 25.592 167.425 23.736C168.001 23.352 168.641 23.544 169.345 24.312C170.049 25.016 170.433 25.752 170.497 26.52C170.497 27.224 170.241 27.704 169.729 27.96C167.169 29.56 164.801 31.384 162.625 33.432C160.449 35.416 158.209 37.688 155.905 40.248C157.185 40.056 158.305 39.928 159.265 39.864C160.225 39.8 160.833 39.768 161.089 39.768C161.281 39.768 161.601 39.768 162.049 39.768C162.497 39.704 162.977 39.672 163.489 39.672C164.257 39.672 164.961 39.736 165.601 39.864C166.305 39.992 166.657 40.216 166.657 40.536C166.657 40.792 166.369 41.016 165.793 41.208C165.281 41.336 164.705 41.432 164.065 41.496C163.425 41.496 162.945 41.528 162.625 41.592C160.705 41.848 158.977 42.104 157.441 42.36C155.969 42.616 154.593 42.936 153.313 43.32C151.841 45.112 150.689 46.616 149.857 47.832C149.089 49.048 148.417 50.168 147.841 51.192C147.329 52.152 146.689 53.24 145.921 54.456C144.257 57.656 142.817 60.92 141.601 64.248C140.449 67.576 139.873 70.264 139.873 72.312C139.873 72.632 139.905 72.888 139.969 73.08C140.033 73.272 140.225 73.368 140.545 73.368C140.929 73.368 141.281 73.272 141.601 73.08C141.985 72.824 142.305 72.568 142.561 72.312C143.457 71.608 144.289 70.808 145.057 69.912C145.889 68.952 146.689 68.056 147.457 67.224C148.865 65.688 150.305 64.184 151.777 62.712C153.249 61.24 154.689 59.768 156.097 58.296C156.225 58.168 156.353 58.072 156.481 58.008C156.609 57.88 156.737 57.816 156.865 57.816C157.313 57.816 157.537 58.072 157.537 58.584C157.537 58.776 157.409 59.064 157.153 59.448C156.385 60.472 155.553 61.496 154.657 62.52C153.761 63.48 152.897 64.472 152.065 65.496C150.401 67.48 148.737 69.432 147.073 71.352C145.473 73.272 143.873 75.256 142.273 77.304C142.081 77.368 141.889 77.4 141.697 77.4C141.505 77.464 141.313 77.496 141.121 77.496ZM160.625 110.904C154.609 110.904 151.601 107.672 151.601 101.208C151.601 98.456 152.177 95.064 153.329 91.032C154.161 88.344 155.409 85.336 157.073 82.008C158.673 78.68 160.529 75.224 162.641 71.64C164.817 68.056 167.089 64.472 169.457 60.888C171.889 57.24 174.289 53.752 176.657 50.424C175.569 50.808 174.353 51.224 173.009 51.672C171.665 52.12 170.641 52.344 169.937 52.344C169.617 52.216 169.393 51.992 169.265 51.672C169.201 51.288 169.169 50.936 169.169 50.616C169.169 49.784 169.361 48.952 169.745 48.12C170.193 47.288 170.833 46.84 171.665 46.776C172.689 46.648 173.969 46.52 175.505 46.392C177.041 46.2 178.481 46.04 179.825 45.912L181.265 43.992C182.481 42.264 184.049 40.088 185.969 37.464C187.953 34.84 190.161 32.024 192.593 29.016C195.025 25.944 197.617 22.904 200.369 19.896C203.121 16.888 205.905 14.168 208.721 11.736C211.601 9.24 214.417 7.256 217.169 5.784C219.921 4.312 222.513 3.576 224.945 3.576C226.673 3.576 227.889 4.344 228.593 5.88C229.361 7.352 229.745 8.856 229.745 10.392C229.745 12.376 229.233 14.136 228.209 15.672C227.249 17.144 226.001 18.52 224.465 19.8C222.993 21.08 221.457 22.36 219.857 23.64C218.257 24.92 216.849 26.36 215.633 27.96C214.417 29.496 213.617 31.288 213.233 33.336C213.169 33.592 213.105 33.912 213.041 34.296C213.041 34.616 212.881 34.488 212.561 33.912C212.113 33.272 211.889 32.472 211.889 31.512C211.889 29.72 212.625 27.672 214.097 25.368C215.633 23.064 217.457 20.728 219.569 18.36C221.745 15.992 223.793 13.848 225.713 11.928C226.033 11.608 226.385 11.192 226.769 10.68C227.153 10.104 227.345 9.592 227.345 9.144C227.345 8.376 226.641 7.992 225.233 7.992C224.081 7.992 222.577 8.536 220.721 9.62399C218.929 10.712 216.945 12.12 214.769 13.848C212.657 15.576 210.545 17.368 208.433 19.224C206.385 21.08 204.529 22.808 202.865 24.408C201.265 25.944 200.081 27.096 199.313 27.864C196.945 30.168 194.257 32.92 191.249 36.12C188.305 39.32 185.617 42.488 183.185 45.624C184.401 45.56 185.777 45.464 187.313 45.336C188.849 45.144 190.353 44.984 191.825 44.856C193.361 44.728 194.609 44.664 195.569 44.664C195.761 44.664 196.081 44.696 196.529 44.76C196.977 44.824 197.201 44.984 197.201 45.24C197.201 45.496 196.881 45.688 196.241 45.816C195.601 45.88 195.217 45.944 195.089 46.008C193.809 46.2 192.529 46.424 191.249 46.68C189.969 46.936 188.689 47.192 187.409 47.448C186.833 47.576 185.841 47.832 184.433 48.216C183.089 48.536 181.809 48.856 180.593 49.176C180.273 49.688 179.953 50.2 179.633 50.712C179.313 51.16 179.025 51.64 178.769 52.152C183.633 52.024 187.153 53.304 189.329 55.992C191.505 58.68 192.593 62.2 192.593 66.552C192.593 69.56 192.113 72.792 191.153 76.248C190.065 80.344 188.497 84.44 186.449 88.536C184.401 92.632 182.001 96.376 179.249 99.768C176.497 103.16 173.521 105.848 170.321 107.832C167.185 109.88 163.953 110.904 160.625 110.904ZM162.065 108.504C164.497 108.504 166.801 107.768 168.977 106.296C171.217 104.824 173.297 102.904 175.217 100.536C177.201 98.168 178.961 95.544 180.497 92.664C182.097 89.784 183.473 86.904 184.625 84.024C185.777 81.208 186.641 78.648 187.217 76.344C187.601 74.808 187.889 73.304 188.081 71.832C188.337 70.36 188.465 68.952 188.465 67.608C188.465 64.024 187.665 60.984 186.065 58.488C184.465 55.992 181.841 54.648 178.193 54.456C177.617 55.224 176.753 56.504 175.601 58.296C174.449 60.024 173.137 62.04 171.665 64.344C170.257 66.648 168.849 68.984 167.441 71.352C166.033 73.72 164.753 75.928 163.601 77.976C162.449 80.088 161.553 81.816 160.913 83.16C160.465 84.184 159.825 85.72 158.993 87.768C158.097 89.816 157.329 92.056 156.689 94.488C155.985 96.92 155.633 99.192 155.633 101.304C155.633 103.352 156.113 105.048 157.073 106.392C158.033 107.8 159.697 108.504 162.065 108.504ZM216.739 76.056C214.883 76.056 213.507 75.32 212.611 73.848C211.715 72.312 211.267 70.744 211.267 69.144C211.267 66.968 211.843 64.632 212.995 62.136C214.147 59.576 215.523 57.144 217.123 54.84C218.787 52.536 220.259 50.648 221.539 49.176C221.859 48.792 222.275 48.6 222.787 48.6C223.363 48.6 223.939 48.824 224.515 49.272C225.859 48.312 227.395 47.448 229.123 46.68C230.915 45.912 232.643 45.528 234.307 45.528C237.187 45.528 238.627 47 238.627 49.944C238.627 52.76 237.923 55.352 236.515 57.72C235.171 60.088 233.667 62.392 232.003 64.632C231.555 65.208 231.107 65.752 230.659 66.264C230.275 66.776 229.827 67.288 229.315 67.8C232.131 67.032 234.595 65.752 236.707 63.96C238.819 62.168 240.899 60.312 242.947 58.392C243.203 58.136 243.427 57.944 243.619 57.816C243.875 57.624 244.195 57.528 244.579 57.528C244.899 57.528 245.059 57.752 245.059 58.2C245.059 58.264 244.963 58.424 244.771 58.68C244.579 58.936 244.451 59.128 244.387 59.256C242.275 61.816 239.651 64.216 236.515 66.456C233.443 68.632 230.211 69.976 226.819 70.488C225.603 71.704 224.067 72.952 222.211 74.232C220.355 75.448 218.531 76.056 216.739 76.056ZM224.227 68.472C224.483 68.472 224.707 68.472 224.899 68.472C225.155 68.472 225.411 68.44 225.667 68.376C226.947 66.84 228.259 65.016 229.603 62.904C231.011 60.792 232.195 58.616 233.155 56.376C234.115 54.072 234.595 51.992 234.595 50.136C234.595 48.984 234.051 48.408 232.963 48.408C231.875 48.408 230.627 48.728 229.219 49.368C227.811 50.008 226.627 50.68 225.667 51.384V51.672C225.667 52.312 225.155 53.24 224.131 54.456C223.171 55.608 222.115 56.792 220.963 58.008C219.875 59.224 219.075 60.248 218.563 61.08C218.371 63.192 218.787 64.952 219.811 66.36C220.835 67.768 222.307 68.472 224.227 68.472ZM216.835 74.424C218.051 74.424 219.235 73.976 220.387 73.08C221.603 72.184 222.627 71.352 223.459 70.584C221.923 70.456 220.515 69.944 219.235 69.048C218.019 68.088 216.899 67.032 215.875 65.88C215.683 66.264 215.427 67 215.107 68.088C214.787 69.176 214.627 70.264 214.627 71.352C214.627 72.184 214.787 72.92 215.107 73.56C215.427 74.136 216.003 74.424 216.835 74.424ZM259.648 75.96C258.56 75.96 257.248 75.544 255.712 74.712C254.176 73.88 253.12 72.984 252.544 72.024C252.16 71.384 251.968 70.616 251.968 69.72C251.968 67.672 252.704 64.952 254.176 61.56C255.712 58.104 257.632 54.392 259.936 50.424C260.96 48.632 262.272 46.552 263.872 44.184C265.536 41.816 267.392 39.384 269.44 36.888C271.488 34.328 273.632 31.896 275.872 29.592C278.176 27.288 280.448 25.272 282.688 23.544C284.992 21.816 287.168 20.6 289.216 19.896C290.048 19.576 290.784 19.416 291.424 19.416C292.64 19.416 293.472 19.832 293.92 20.664C294.432 21.432 295.104 22.072 295.936 22.584C296.448 22.904 296.704 23.416 296.704 24.12C296.704 25.592 295.904 27.352 294.304 29.4C292.704 31.448 290.624 33.624 288.064 35.928C285.504 38.232 282.752 40.536 279.808 42.84C276.864 45.08 274.016 47.16 271.264 49.08C268.576 51 266.272 52.6 264.352 53.88C262.432 55.16 261.216 55.96 260.704 56.28C259.744 58.072 258.848 60.12 258.016 62.424C257.184 64.728 256.768 66.904 256.768 68.952C256.768 69.72 256.864 70.584 257.056 71.544C257.312 72.44 257.952 72.888 258.976 72.888C259.936 72.888 261.056 72.536 262.336 71.832C263.616 71.128 264.864 70.36 266.08 69.528C267.296 68.632 268.256 67.896 268.96 67.32C270.624 65.976 272.096 64.6 273.376 63.192C274.656 61.784 276.16 60.184 277.888 58.392C278.016 58.264 278.144 58.168 278.272 58.104C278.4 57.976 278.56 57.912 278.752 57.912C279.136 57.912 279.328 58.136 279.328 58.584C279.328 58.968 279.168 59.32 278.848 59.64C276.288 62.456 273.6 65.368 270.784 68.376C268.032 71.384 264.96 73.752 261.568 75.48C260.928 75.8 260.288 75.96 259.648 75.96ZM263.776 51.288C264.736 50.968 266.08 50.2 267.808 48.984C269.536 47.704 271.456 46.2 273.568 44.472C275.744 42.744 277.92 40.92 280.096 39C282.336 37.016 284.384 35.128 286.24 33.336C288.16 31.48 289.728 29.912 290.944 28.632C292.224 27.288 292.96 26.36 293.152 25.848C293.28 25.464 293.344 25.208 293.344 25.08C293.344 24.568 293.088 24.216 292.576 24.024C292.128 23.832 291.616 23.736 291.04 23.736C290.72 23.736 290.4 23.768 290.08 23.832C289.76 23.896 289.472 23.96 289.216 24.024C288.128 24.408 286.688 25.368 284.896 26.904C283.104 28.376 281.184 30.2 279.136 32.376C277.088 34.488 275.04 36.728 272.992 39.096C271.008 41.464 269.184 43.736 267.52 45.912C265.92 48.024 264.672 49.816 263.776 51.288ZM309.03 38.808C307.558 38.808 306.822 38.264 306.822 37.176C306.822 36.408 307.238 35.576 308.07 34.68C308.902 33.784 310.118 33.144 311.718 32.76C312.678 32.504 313.446 32.376 314.022 32.376C314.662 32.312 315.27 32.184 315.846 31.992C315.59 33.208 315.046 34.52 314.214 35.928C313.446 37.336 312.422 38.2 311.142 38.52C310.502 38.712 309.798 38.808 309.03 38.808ZM293.67 77.016C292.646 77.016 291.686 76.6 290.79 75.768C289.958 74.936 289.446 74.04 289.254 73.08C289.446 71.864 289.862 70.392 290.502 68.664C291.206 66.872 292.006 65.016 292.902 63.096C293.798 61.176 294.694 59.384 295.59 57.72C296.486 55.992 297.254 54.616 297.894 53.592C296.678 54.68 295.366 55.896 293.958 57.24C292.614 58.584 291.334 59.832 290.118 60.984C290.054 61.048 289.894 61.176 289.638 61.368C289.446 61.56 289.254 61.656 289.062 61.656C288.614 61.656 288.39 61.464 288.39 61.08C288.39 60.76 288.518 60.472 288.774 60.216C290.502 58.296 292.294 56.376 294.15 54.456C296.07 52.536 297.926 50.552 299.718 48.504C300.294 47.8 300.774 47.256 301.158 46.872C301.606 46.424 302.278 46.2 303.174 46.2C303.558 46.2 304.134 46.296 304.902 46.488C305.734 46.616 306.406 46.872 306.918 47.256C307.494 47.64 307.59 48.12 307.206 48.696C306.758 49.4 305.99 50.552 304.902 52.152C303.814 53.752 302.566 55.576 301.158 57.624C299.814 59.672 298.47 61.752 297.126 63.864C295.846 65.912 294.79 67.768 293.958 69.432C293.126 71.096 292.71 72.344 292.71 73.176C292.71 73.56 292.838 73.752 293.094 73.752C293.478 73.752 294.118 73.4 295.014 72.696C295.974 71.992 296.902 71.256 297.798 70.488C298.758 69.656 299.398 69.112 299.718 68.856C301.574 67.256 303.398 65.624 305.19 63.96C306.982 62.232 308.678 60.44 310.278 58.584C310.406 58.456 310.566 58.264 310.758 58.008C311.014 57.752 311.27 57.624 311.526 57.624C311.846 57.624 312.006 57.816 312.006 58.2C312.006 58.648 311.846 59.096 311.526 59.544C310.694 60.568 309.766 61.592 308.742 62.616C307.718 63.576 306.758 64.536 305.862 65.496C304.198 67.16 302.566 68.824 300.966 70.488C299.43 72.088 297.894 73.752 296.358 75.48C296.038 75.864 295.622 76.216 295.11 76.536C294.662 76.856 294.182 77.016 293.67 77.016ZM324.772 76.056C322.916 76.056 321.54 75.32 320.644 73.848C319.748 72.312 319.3 70.744 319.3 69.144C319.3 66.968 319.876 64.632 321.028 62.136C322.18 59.576 323.556 57.144 325.156 54.84C326.82 52.536 328.292 50.648 329.572 49.176C329.892 48.792 330.308 48.6 330.82 48.6C331.396 48.6 331.972 48.824 332.548 49.272C333.892 48.312 335.428 47.448 337.156 46.68C338.948 45.912 340.676 45.528 342.34 45.528C345.22 45.528 346.66 47 346.66 49.944C346.66 52.76 345.956 55.352 344.548 57.72C343.204 60.088 341.7 62.392 340.036 64.632C339.588 65.208 339.14 65.752 338.692 66.264C338.308 66.776 337.86 67.288 337.348 67.8C340.164 67.032 342.628 65.752 344.74 63.96C346.852 62.168 348.932 60.312 350.98 58.392C351.236 58.136 351.46 57.944 351.652 57.816C351.908 57.624 352.228 57.528 352.612 57.528C352.932 57.528 353.092 57.752 353.092 58.2C353.092 58.264 352.996 58.424 352.804 58.68C352.612 58.936 352.484 59.128 352.42 59.256C350.308 61.816 347.684 64.216 344.548 66.456C341.476 68.632 338.244 69.976 334.852 70.488C333.636 71.704 332.1 72.952 330.244 74.232C328.388 75.448 326.564 76.056 324.772 76.056ZM332.26 68.472C332.516 68.472 332.74 68.472 332.932 68.472C333.188 68.472 333.444 68.44 333.7 68.376C334.98 66.84 336.292 65.016 337.636 62.904C339.044 60.792 340.228 58.616 341.188 56.376C342.148 54.072 342.628 51.992 342.628 50.136C342.628 48.984 342.084 48.408 340.996 48.408C339.908 48.408 338.66 48.728 337.252 49.368C335.844 50.008 334.66 50.68 333.7 51.384V51.672C333.7 52.312 333.188 53.24 332.164 54.456C331.204 55.608 330.148 56.792 328.996 58.008C327.908 59.224 327.108 60.248 326.596 61.08C326.404 63.192 326.82 64.952 327.844 66.36C328.868 67.768 330.34 68.472 332.26 68.472ZM324.868 74.424C326.084 74.424 327.268 73.976 328.42 73.08C329.636 72.184 330.66 71.352 331.492 70.584C329.956 70.456 328.548 69.944 327.268 69.048C326.052 68.088 324.932 67.032 323.908 65.88C323.716 66.264 323.46 67 323.14 68.088C322.82 69.176 322.66 70.264 322.66 71.352C322.66 72.184 322.82 72.92 323.14 73.56C323.46 74.136 324.036 74.424 324.868 74.424Z" fill="#333333"/>
<path d="M11.616 106.104C9.12 106.104 7.424 105.368 6.528 103.896C5.568 102.424 5.088 100.632 5.088 98.52C5.088 96.856 5.28 95.128 5.664 93.336C6.048 91.608 6.464 90.04 6.912 88.632C9.152 81.208 12.192 74.232 16.032 67.704C19.936 61.112 24.544 55 29.856 49.368C29.536 48.92 29.056 48.44 28.416 47.928C27.84 47.416 27.552 46.904 27.552 46.392C27.552 45.752 27.744 45.336 28.128 45.144C28.512 44.888 28.96 44.76 29.472 44.76C29.6 44.76 30.112 44.824 31.008 44.952C31.968 45.016 32.832 45.336 33.6 45.912L38.688 40.632C39.072 40.248 39.424 39.864 39.744 39.48C40.064 39.032 40.416 38.648 40.8 38.328C41.12 38.008 41.44 37.752 41.76 37.56C42.144 37.368 42.56 37.272 43.008 37.272C43.712 37.272 44.224 37.528 44.544 38.04C44.864 38.488 45.024 39 45.024 39.576C45.024 40.216 44.864 40.792 44.544 41.304C44.224 41.752 43.808 42.232 43.296 42.744C42.272 43.768 41.12 44.824 39.84 45.912C38.56 47 37.6 47.96 36.96 48.792C37.984 49.752 38.816 50.68 39.456 51.576C40.096 52.408 40.64 53.464 41.088 54.744C41.28 55.384 41.44 56.024 41.568 56.664C41.696 57.304 41.76 57.976 41.76 58.68C41.76 61.112 41.088 63.384 39.744 65.496C38.464 67.608 36.736 69.464 34.56 71.064C32.384 72.6 30.016 73.816 27.456 74.712C24.896 75.608 22.4 76.056 19.968 76.056C19.328 76.056 18.656 75.928 17.952 75.672C17.312 75.48 16.736 75.16 16.224 74.712C15.392 76.12 14.56 77.912 13.728 80.088C12.896 82.328 12.128 84.632 11.424 87C10.72 89.432 10.176 91.704 9.792 93.816C9.344 95.992 9.12 97.72 9.12 99C9.12 100.344 9.344 101.4 9.792 102.168C10.24 103 11.008 103.416 12.096 103.416C12.288 103.416 12.8 103.384 13.632 103.32C14.528 103.32 15.328 103.128 16.032 102.744C16.16 103.64 15.776 104.408 14.88 105.048C13.984 105.752 12.896 106.104 11.616 106.104ZM22.944 73.848C23.264 73.848 23.552 73.848 23.808 73.848C24.128 73.784 24.416 73.72 24.672 73.656C26.848 73.272 28.896 72.504 30.816 71.352C32.736 70.2 34.272 68.696 35.424 66.84C36.64 64.92 37.248 62.744 37.248 60.312C37.248 58.84 36.896 57.272 36.192 55.608C35.552 53.88 34.496 52.568 33.024 51.672C30.656 54.104 28 57.112 25.056 60.696C22.176 64.216 19.584 68.056 17.28 72.216C17.6 71.896 17.888 71.736 18.144 71.736C18.464 71.736 18.752 71.864 19.008 72.12C19.328 72.376 19.52 72.568 19.584 72.696C20.352 73.464 21.472 73.848 22.944 73.848ZM60.8813 76.056C59.0252 76.056 57.6492 75.32 56.7532 73.848C55.8572 72.312 55.4092 70.744 55.4092 69.144C55.4092 66.968 55.9852 64.632 57.1372 62.136C58.2892 59.576 59.6652 57.144 61.2653 54.84C62.9292 52.536 64.4012 50.648 65.6813 49.176C66.0013 48.792 66.4173 48.6 66.9293 48.6C67.5053 48.6 68.0813 48.824 68.6573 49.272C70.0013 48.312 71.5373 47.448 73.2653 46.68C75.0573 45.912 76.7853 45.528 78.4493 45.528C81.3293 45.528 82.7693 47 82.7693 49.944C82.7693 52.76 82.0653 55.352 80.6573 57.72C79.3133 60.088 77.8092 62.392 76.1453 64.632C75.6973 65.208 75.2493 65.752 74.8013 66.264C74.4173 66.776 73.9693 67.288 73.4573 67.8C76.2733 67.032 78.7373 65.752 80.8492 63.96C82.9613 62.168 85.0413 60.312 87.0893 58.392C87.3453 58.136 87.5693 57.944 87.7613 57.816C88.0173 57.624 88.3373 57.528 88.7213 57.528C89.0413 57.528 89.2013 57.752 89.2013 58.2C89.2013 58.264 89.1053 58.424 88.9133 58.68C88.7213 58.936 88.5933 59.128 88.5293 59.256C86.4173 61.816 83.7933 64.216 80.6573 66.456C77.5853 68.632 74.3533 69.976 70.9612 70.488C69.7453 71.704 68.2093 72.952 66.3533 74.232C64.4973 75.448 62.6732 76.056 60.8813 76.056ZM68.3693 68.472C68.6252 68.472 68.8492 68.472 69.0413 68.472C69.2973 68.472 69.5533 68.44 69.8093 68.376C71.0893 66.84 72.4013 65.016 73.7453 62.904C75.1533 60.792 76.3373 58.616 77.2972 56.376C78.2573 54.072 78.7373 51.992 78.7373 50.136C78.7373 48.984 78.1933 48.408 77.1052 48.408C76.0173 48.408 74.7693 48.728 73.3613 49.368C71.9533 50.008 70.7693 50.68 69.8093 51.384V51.672C69.8093 52.312 69.2973 53.24 68.2733 54.456C67.3133 55.608 66.2573 56.792 65.1053 58.008C64.0173 59.224 63.2173 60.248 62.7053 61.08C62.5133 63.192 62.9293 64.952 63.9532 66.36C64.9773 67.768 66.4493 68.472 68.3693 68.472ZM60.9772 74.424C62.1932 74.424 63.3772 73.976 64.5292 73.08C65.7453 72.184 66.7693 71.352 67.6013 70.584C66.0652 70.456 64.6572 69.944 63.3773 69.048C62.1613 68.088 61.0412 67.032 60.0172 65.88C59.8252 66.264 59.5692 67 59.2492 68.088C58.9293 69.176 58.7693 70.264 58.7693 71.352C58.7693 72.184 58.9293 72.92 59.2492 73.56C59.5692 74.136 60.1452 74.424 60.9772 74.424ZM107.822 76.152C106.798 76.152 105.71 75.64 104.558 74.616C103.47 73.528 102.926 72.472 102.926 71.448C102.926 70.168 103.374 68.728 104.27 67.128C105.166 65.464 106.222 63.864 107.438 62.328C108.654 60.792 109.71 59.48 110.606 58.392C111.502 57.24 111.95 56.472 111.95 56.088V55.896C111.374 55.384 110.83 54.904 110.318 54.456C109.806 53.944 109.102 53.688 108.206 53.688C107.566 53.688 106.734 54.072 105.71 54.84C104.75 55.608 103.758 56.504 102.734 57.528C101.71 58.552 100.782 59.512 99.9502 60.408C99.1182 61.304 98.5102 61.912 98.1262 62.232C97.8702 62.488 97.6142 62.648 97.3582 62.712C97.1662 62.776 97.0062 62.808 96.8782 62.808C96.6222 62.808 96.4942 62.68 96.4942 62.424C96.4942 62.168 96.6222 61.912 96.8782 61.656C97.9022 60.312 99.0862 58.936 100.43 57.528C101.774 56.12 102.99 54.84 104.078 53.688C105.166 52.472 105.806 51.608 105.998 51.096C106.51 49.624 107.022 48.312 107.534 47.16C108.11 46.008 109.006 44.92 110.222 43.896C110.734 43.384 111.342 42.968 112.046 42.648C112.75 42.328 113.454 42.168 114.158 42.168C114.798 42.168 115.31 42.36 115.694 42.744C116.142 43.064 116.366 43.576 116.366 44.28C116.366 45.048 116.014 45.816 115.31 46.584C114.67 47.352 113.902 48.088 113.006 48.792C112.11 49.432 111.31 50.008 110.606 50.52C109.966 51.032 109.678 51.448 109.742 51.768C110.126 52.024 110.862 52.344 111.95 52.728C113.102 53.112 113.902 53.304 114.35 53.304C114.862 53.304 115.342 53.208 115.79 53.016C116.238 52.824 116.686 52.728 117.134 52.728C117.774 52.728 118.414 52.92 119.054 53.304C119.694 53.688 120.014 54.264 120.014 55.032C120.014 55.672 119.758 56.28 119.246 56.856C118.798 57.368 118.318 57.816 117.806 58.2C117.038 58.776 116.014 59.64 114.734 60.792C113.454 61.944 112.142 63.224 110.798 64.632C109.518 66.04 108.398 67.448 107.438 68.856C106.542 70.2 106.094 71.384 106.094 72.408C106.094 72.664 106.158 72.92 106.286 73.176C106.35 73.24 106.478 73.272 106.67 73.272C107.95 73.272 109.39 72.696 110.99 71.544C112.59 70.392 114.19 68.984 115.79 67.32C117.454 65.656 118.99 64.024 120.398 62.424C121.87 60.76 123.118 59.48 124.142 58.584C124.27 58.456 124.43 58.328 124.622 58.2C124.814 58.072 125.006 58.008 125.198 58.008C125.518 58.008 125.678 58.232 125.678 58.68C125.678 58.936 125.23 59.576 124.334 60.6C123.502 61.624 122.414 62.84 121.07 64.248C119.726 65.656 118.318 67.096 116.846 68.568C115.438 70.04 114.126 71.352 112.91 72.504C111.694 73.592 110.83 74.36 110.318 74.808C109.614 75.384 109.102 75.736 108.782 75.864C108.462 76.056 108.142 76.152 107.822 76.152ZM141.121 77.496C139.969 77.496 138.977 77.112 138.145 76.344C137.377 75.576 136.769 74.648 136.321 73.56C135.937 72.408 135.745 71.32 135.745 70.296C135.745 69.272 135.873 68.28 136.129 67.32C136.385 66.296 136.737 65.304 137.185 64.344C138.017 62.488 139.009 60.44 140.161 58.2C141.377 55.896 142.657 53.56 144.001 51.192C145.409 48.76 146.817 46.552 148.225 44.568C147.137 45.016 145.857 45.528 144.385 46.104C142.977 46.616 142.049 46.872 141.601 46.872C141.345 46.808 141.153 46.616 141.025 46.296C140.961 45.976 140.929 45.656 140.929 45.336C140.929 43.992 141.569 43.096 142.849 42.648C144.833 42.008 147.489 41.432 150.817 40.92C153.249 37.72 155.873 34.52 158.689 31.32C161.569 28.12 164.481 25.592 167.425 23.736C168.001 23.352 168.641 23.544 169.345 24.312C170.049 25.016 170.433 25.752 170.497 26.52C170.497 27.224 170.241 27.704 169.729 27.96C167.169 29.56 164.801 31.384 162.625 33.432C160.449 35.416 158.209 37.688 155.905 40.248C157.185 40.056 158.305 39.928 159.265 39.864C160.225 39.8 160.833 39.768 161.089 39.768C161.281 39.768 161.601 39.768 162.049 39.768C162.497 39.704 162.977 39.672 163.489 39.672C164.257 39.672 164.961 39.736 165.601 39.864C166.305 39.992 166.657 40.216 166.657 40.536C166.657 40.792 166.369 41.016 165.793 41.208C165.281 41.336 164.705 41.432 164.065 41.496C163.425 41.496 162.945 41.528 162.625 41.592C160.705 41.848 158.977 42.104 157.441 42.36C155.969 42.616 154.593 42.936 153.313 43.32C151.841 45.112 150.689 46.616 149.857 47.832C149.089 49.048 148.417 50.168 147.841 51.192C147.329 52.152 146.689 53.24 145.921 54.456C144.257 57.656 142.817 60.92 141.601 64.248C140.449 67.576 139.873 70.264 139.873 72.312C139.873 72.632 139.905 72.888 139.969 73.08C140.033 73.272 140.225 73.368 140.545 73.368C140.929 73.368 141.281 73.272 141.601 73.08C141.985 72.824 142.305 72.568 142.561 72.312C143.457 71.608 144.289 70.808 145.057 69.912C145.889 68.952 146.689 68.056 147.457 67.224C148.865 65.688 150.305 64.184 151.777 62.712C153.249 61.24 154.689 59.768 156.097 58.296C156.225 58.168 156.353 58.072 156.481 58.008C156.609 57.88 156.737 57.816 156.865 57.816C157.313 57.816 157.537 58.072 157.537 58.584C157.537 58.776 157.409 59.064 157.153 59.448C156.385 60.472 155.553 61.496 154.657 62.52C153.761 63.48 152.897 64.472 152.065 65.496C150.401 67.48 148.737 69.432 147.073 71.352C145.473 73.272 143.873 75.256 142.273 77.304C142.081 77.368 141.889 77.4 141.697 77.4C141.505 77.464 141.313 77.496 141.121 77.496ZM160.625 110.904C154.609 110.904 151.601 107.672 151.601 101.208C151.601 98.456 152.177 95.064 153.329 91.032C154.161 88.344 155.409 85.336 157.073 82.008C158.673 78.68 160.529 75.224 162.641 71.64C164.817 68.056 167.089 64.472 169.457 60.888C171.889 57.24 174.289 53.752 176.657 50.424C175.569 50.808 174.353 51.224 173.009 51.672C171.665 52.12 170.641 52.344 169.937 52.344C169.617 52.216 169.393 51.992 169.265 51.672C169.201 51.288 169.169 50.936 169.169 50.616C169.169 49.784 169.361 48.952 169.745 48.12C170.193 47.288 170.833 46.84 171.665 46.776C172.689 46.648 173.969 46.52 175.505 46.392C177.041 46.2 178.481 46.04 179.825 45.912L181.265 43.992C182.481 42.264 184.049 40.088 185.969 37.464C187.953 34.84 190.161 32.024 192.593 29.016C195.025 25.944 197.617 22.904 200.369 19.896C203.121 16.888 205.905 14.168 208.721 11.736C211.601 9.24 214.417 7.256 217.169 5.784C219.921 4.312 222.513 3.576 224.945 3.576C226.673 3.576 227.889 4.344 228.593 5.88C229.361 7.352 229.745 8.856 229.745 10.392C229.745 12.376 229.233 14.136 228.209 15.672C227.249 17.144 226.001 18.52 224.465 19.8C222.993 21.08 221.457 22.36 219.857 23.64C218.257 24.92 216.849 26.36 215.633 27.96C214.417 29.496 213.617 31.288 213.233 33.336C213.169 33.592 213.105 33.912 213.041 34.296C213.041 34.616 212.881 34.488 212.561 33.912C212.113 33.272 211.889 32.472 211.889 31.512C211.889 29.72 212.625 27.672 214.097 25.368C215.633 23.064 217.457 20.728 219.569 18.36C221.745 15.992 223.793 13.848 225.713 11.928C226.033 11.608 226.385 11.192 226.769 10.68C227.153 10.104 227.345 9.592 227.345 9.144C227.345 8.376 226.641 7.992 225.233 7.992C224.081 7.992 222.577 8.536 220.721 9.62399C218.929 10.712 216.945 12.12 214.769 13.848C212.657 15.576 210.545 17.368 208.433 19.224C206.385 21.08 204.529 22.808 202.865 24.408C201.265 25.944 200.081 27.096 199.313 27.864C196.945 30.168 194.257 32.92 191.249 36.12C188.305 39.32 185.617 42.488 183.185 45.624C184.401 45.56 185.777 45.464 187.313 45.336C188.849 45.144 190.353 44.984 191.825 44.856C193.361 44.728 194.609 44.664 195.569 44.664C195.761 44.664 196.081 44.696 196.529 44.76C196.977 44.824 197.201 44.984 197.201 45.24C197.201 45.496 196.881 45.688 196.241 45.816C195.601 45.88 195.217 45.944 195.089 46.008C193.809 46.2 192.529 46.424 191.249 46.68C189.969 46.936 188.689 47.192 187.409 47.448C186.833 47.576 185.841 47.832 184.433 48.216C183.089 48.536 181.809 48.856 180.593 49.176C180.273 49.688 179.953 50.2 179.633 50.712C179.313 51.16 179.025 51.64 178.769 52.152C183.633 52.024 187.153 53.304 189.329 55.992C191.505 58.68 192.593 62.2 192.593 66.552C192.593 69.56 192.113 72.792 191.153 76.248C190.065 80.344 188.497 84.44 186.449 88.536C184.401 92.632 182.001 96.376 179.249 99.768C176.497 103.16 173.521 105.848 170.321 107.832C167.185 109.88 163.953 110.904 160.625 110.904ZM162.065 108.504C164.497 108.504 166.801 107.768 168.977 106.296C171.217 104.824 173.297 102.904 175.217 100.536C177.201 98.168 178.961 95.544 180.497 92.664C182.097 89.784 183.473 86.904 184.625 84.024C185.777 81.208 186.641 78.648 187.217 76.344C187.601 74.808 187.889 73.304 188.081 71.832C188.337 70.36 188.465 68.952 188.465 67.608C188.465 64.024 187.665 60.984 186.065 58.488C184.465 55.992 181.841 54.648 178.193 54.456C177.617 55.224 176.753 56.504 175.601 58.296C174.449 60.024 173.137 62.04 171.665 64.344C170.257 66.648 168.849 68.984 167.441 71.352C166.033 73.72 164.753 75.928 163.601 77.976C162.449 80.088 161.553 81.816 160.913 83.16C160.465 84.184 159.825 85.72 158.993 87.768C158.097 89.816 157.329 92.056 156.689 94.488C155.985 96.92 155.633 99.192 155.633 101.304C155.633 103.352 156.113 105.048 157.073 106.392C158.033 107.8 159.697 108.504 162.065 108.504ZM216.739 76.056C214.883 76.056 213.507 75.32 212.611 73.848C211.715 72.312 211.267 70.744 211.267 69.144C211.267 66.968 211.843 64.632 212.995 62.136C214.147 59.576 215.523 57.144 217.123 54.84C218.787 52.536 220.259 50.648 221.539 49.176C221.859 48.792 222.275 48.6 222.787 48.6C223.363 48.6 223.939 48.824 224.515 49.272C225.859 48.312 227.395 47.448 229.123 46.68C230.915 45.912 232.643 45.528 234.307 45.528C237.187 45.528 238.627 47 238.627 49.944C238.627 52.76 237.923 55.352 236.515 57.72C235.171 60.088 233.667 62.392 232.003 64.632C231.555 65.208 231.107 65.752 230.659 66.264C230.275 66.776 229.827 67.288 229.315 67.8C232.131 67.032 234.595 65.752 236.707 63.96C238.819 62.168 240.899 60.312 242.947 58.392C243.203 58.136 243.427 57.944 243.619 57.816C243.875 57.624 244.195 57.528 244.579 57.528C244.899 57.528 245.059 57.752 245.059 58.2C245.059 58.264 244.963 58.424 244.771 58.68C244.579 58.936 244.451 59.128 244.387 59.256C242.275 61.816 239.651 64.216 236.515 66.456C233.443 68.632 230.211 69.976 226.819 70.488C225.603 71.704 224.067 72.952 222.211 74.232C220.355 75.448 218.531 76.056 216.739 76.056ZM224.227 68.472C224.483 68.472 224.707 68.472 224.899 68.472C225.155 68.472 225.411 68.44 225.667 68.376C226.947 66.84 228.259 65.016 229.603 62.904C231.011 60.792 232.195 58.616 233.155 56.376C234.115 54.072 234.595 51.992 234.595 50.136C234.595 48.984 234.051 48.408 232.963 48.408C231.875 48.408 230.627 48.728 229.219 49.368C227.811 50.008 226.627 50.68 225.667 51.384V51.672C225.667 52.312 225.155 53.24 224.131 54.456C223.171 55.608 222.115 56.792 220.963 58.008C219.875 59.224 219.075 60.248 218.563 61.08C218.371 63.192 218.787 64.952 219.811 66.36C220.835 67.768 222.307 68.472 224.227 68.472ZM216.835 74.424C218.051 74.424 219.235 73.976 220.387 73.08C221.603 72.184 222.627 71.352 223.459 70.584C221.923 70.456 220.515 69.944 219.235 69.048C218.019 68.088 216.899 67.032 215.875 65.88C215.683 66.264 215.427 67 215.107 68.088C214.787 69.176 214.627 70.264 214.627 71.352C214.627 72.184 214.787 72.92 215.107 73.56C215.427 74.136 216.003 74.424 216.835 74.424ZM259.648 75.96C258.56 75.96 257.248 75.544 255.712 74.712C254.176 73.88 253.12 72.984 252.544 72.024C252.16 71.384 251.968 70.616 251.968 69.72C251.968 67.672 252.704 64.952 254.176 61.56C255.712 58.104 257.632 54.392 259.936 50.424C260.96 48.632 262.272 46.552 263.872 44.184C265.536 41.816 267.392 39.384 269.44 36.888C271.488 34.328 273.632 31.896 275.872 29.592C278.176 27.288 280.448 25.272 282.688 23.544C284.992 21.816 287.168 20.6 289.216 19.896C290.048 19.576 290.784 19.416 291.424 19.416C292.64 19.416 293.472 19.832 293.92 20.664C294.432 21.432 295.104 22.072 295.936 22.584C296.448 22.904 296.704 23.416 296.704 24.12C296.704 25.592 295.904 27.352 294.304 29.4C292.704 31.448 290.624 33.624 288.064 35.928C285.504 38.232 282.752 40.536 279.808 42.84C276.864 45.08 274.016 47.16 271.264 49.08C268.576 51 266.272 52.6 264.352 53.88C262.432 55.16 261.216 55.96 260.704 56.28C259.744 58.072 258.848 60.12 258.016 62.424C257.184 64.728 256.768 66.904 256.768 68.952C256.768 69.72 256.864 70.584 257.056 71.544C257.312 72.44 257.952 72.888 258.976 72.888C259.936 72.888 261.056 72.536 262.336 71.832C263.616 71.128 264.864 70.36 266.08 69.528C267.296 68.632 268.256 67.896 268.96 67.32C270.624 65.976 272.096 64.6 273.376 63.192C274.656 61.784 276.16 60.184 277.888 58.392C278.016 58.264 278.144 58.168 278.272 58.104C278.4 57.976 278.56 57.912 278.752 57.912C279.136 57.912 279.328 58.136 279.328 58.584C279.328 58.968 279.168 59.32 278.848 59.64C276.288 62.456 273.6 65.368 270.784 68.376C268.032 71.384 264.96 73.752 261.568 75.48C260.928 75.8 260.288 75.96 259.648 75.96ZM263.776 51.288C264.736 50.968 266.08 50.2 267.808 48.984C269.536 47.704 271.456 46.2 273.568 44.472C275.744 42.744 277.92 40.92 280.096 39C282.336 37.016 284.384 35.128 286.24 33.336C288.16 31.48 289.728 29.912 290.944 28.632C292.224 27.288 292.96 26.36 293.152 25.848C293.28 25.464 293.344 25.208 293.344 25.08C293.344 24.568 293.088 24.216 292.576 24.024C292.128 23.832 291.616 23.736 291.04 23.736C290.72 23.736 290.4 23.768 290.08 23.832C289.76 23.896 289.472 23.96 289.216 24.024C288.128 24.408 286.688 25.368 284.896 26.904C283.104 28.376 281.184 30.2 279.136 32.376C277.088 34.488 275.04 36.728 272.992 39.096C271.008 41.464 269.184 43.736 267.52 45.912C265.92 48.024 264.672 49.816 263.776 51.288ZM309.03 38.808C307.558 38.808 306.822 38.264 306.822 37.176C306.822 36.408 307.238 35.576 308.07 34.68C308.902 33.784 310.118 33.144 311.718 32.76C312.678 32.504 313.446 32.376 314.022 32.376C314.662 32.312 315.27 32.184 315.846 31.992C315.59 33.208 315.046 34.52 314.214 35.928C313.446 37.336 312.422 38.2 311.142 38.52C310.502 38.712 309.798 38.808 309.03 38.808ZM293.67 77.016C292.646 77.016 291.686 76.6 290.79 75.768C289.958 74.936 289.446 74.04 289.254 73.08C289.446 71.864 289.862 70.392 290.502 68.664C291.206 66.872 292.006 65.016 292.902 63.096C293.798 61.176 294.694 59.384 295.59 57.72C296.486 55.992 297.254 54.616 297.894 53.592C296.678 54.68 295.366 55.896 293.958 57.24C292.614 58.584 291.334 59.832 290.118 60.984C290.054 61.048 289.894 61.176 289.638 61.368C289.446 61.56 289.254 61.656 289.062 61.656C288.614 61.656 288.39 61.464 288.39 61.08C288.39 60.76 288.518 60.472 288.774 60.216C290.502 58.296 292.294 56.376 294.15 54.456C296.07 52.536 297.926 50.552 299.718 48.504C300.294 47.8 300.774 47.256 301.158 46.872C301.606 46.424 302.278 46.2 303.174 46.2C303.558 46.2 304.134 46.296 304.902 46.488C305.734 46.616 306.406 46.872 306.918 47.256C307.494 47.64 307.59 48.12 307.206 48.696C306.758 49.4 305.99 50.552 304.902 52.152C303.814 53.752 302.566 55.576 301.158 57.624C299.814 59.672 298.47 61.752 297.126 63.864C295.846 65.912 294.79 67.768 293.958 69.432C293.126 71.096 292.71 72.344 292.71 73.176C292.71 73.56 292.838 73.752 293.094 73.752C293.478 73.752 294.118 73.4 295.014 72.696C295.974 71.992 296.902 71.256 297.798 70.488C298.758 69.656 299.398 69.112 299.718 68.856C301.574 67.256 303.398 65.624 305.19 63.96C306.982 62.232 308.678 60.44 310.278 58.584C310.406 58.456 310.566 58.264 310.758 58.008C311.014 57.752 311.27 57.624 311.526 57.624C311.846 57.624 312.006 57.816 312.006 58.2C312.006 58.648 311.846 59.096 311.526 59.544C310.694 60.568 309.766 61.592 308.742 62.616C307.718 63.576 306.758 64.536 305.862 65.496C304.198 67.16 302.566 68.824 300.966 70.488C299.43 72.088 297.894 73.752 296.358 75.48C296.038 75.864 295.622 76.216 295.11 76.536C294.662 76.856 294.182 77.016 293.67 77.016ZM324.772 76.056C322.916 76.056 321.54 75.32 320.644 73.848C319.748 72.312 319.3 70.744 319.3 69.144C319.3 66.968 319.876 64.632 321.028 62.136C322.18 59.576 323.556 57.144 325.156 54.84C326.82 52.536 328.292 50.648 329.572 49.176C329.892 48.792 330.308 48.6 330.82 48.6C331.396 48.6 331.972 48.824 332.548 49.272C333.892 48.312 335.428 47.448 337.156 46.68C338.948 45.912 340.676 45.528 342.34 45.528C345.22 45.528 346.66 47 346.66 49.944C346.66 52.76 345.956 55.352 344.548 57.72C343.204 60.088 341.7 62.392 340.036 64.632C339.588 65.208 339.14 65.752 338.692 66.264C338.308 66.776 337.86 67.288 337.348 67.8C340.164 67.032 342.628 65.752 344.74 63.96C346.852 62.168 348.932 60.312 350.98 58.392C351.236 58.136 351.46 57.944 351.652 57.816C351.908 57.624 352.228 57.528 352.612 57.528C352.932 57.528 353.092 57.752 353.092 58.2C353.092 58.264 352.996 58.424 352.804 58.68C352.612 58.936 352.484 59.128 352.42 59.256C350.308 61.816 347.684 64.216 344.548 66.456C341.476 68.632 338.244 69.976 334.852 70.488C333.636 71.704 332.1 72.952 330.244 74.232C328.388 75.448 326.564 76.056 324.772 76.056ZM332.26 68.472C332.516 68.472 332.74 68.472 332.932 68.472C333.188 68.472 333.444 68.44 333.7 68.376C334.98 66.84 336.292 65.016 337.636 62.904C339.044 60.792 340.228 58.616 341.188 56.376C342.148 54.072 342.628 51.992 342.628 50.136C342.628 48.984 342.084 48.408 340.996 48.408C339.908 48.408 338.66 48.728 337.252 49.368C335.844 50.008 334.66 50.68 333.7 51.384V51.672C333.7 52.312 333.188 53.24 332.164 54.456C331.204 55.608 330.148 56.792 328.996 58.008C327.908 59.224 327.108 60.248 326.596 61.08C326.404 63.192 326.82 64.952 327.844 66.36C328.868 67.768 330.34 68.472 332.26 68.472ZM324.868 74.424C326.084 74.424 327.268 73.976 328.42 73.08C329.636 72.184 330.66 71.352 331.492 70.584C329.956 70.456 328.548 69.944 327.268 69.048C326.052 68.088 324.932 67.032 323.908 65.88C323.716 66.264 323.46 67 323.14 68.088C322.82 69.176 322.66 70.264 322.66 71.352C322.66 72.184 322.82 72.92 323.14 73.56C323.46 74.136 324.036 74.424 324.868 74.424Z" fill="black" fill-opacity="0.2"/>
</g>
<defs>
<filter id="filter0_d_362_27" x="0.0880127" y="0.575928" width="362.005" height="121.328" filterUnits="userSpaceOnUse" color-interpolation-filters="sRGB">
<feFlood flood-opacity="0" result="BackgroundImageFix"/>
<feColorMatrix in="SourceAlpha" type="matrix" values="0 0 0 0 0 0 0 0 0 0 0 0 0 0 0 0 0 0 127 0" result="hardAlpha"/>
<feOffset dx="2" dy="4"/>
<feGaussianBlur stdDeviation="3.5"/>
<feComposite in2="hardAlpha" operator="out"/>
<feColorMatrix type="matrix" values="0 0 0 0 0 0 0 0 0 0 0 0 0 0 0 0 0 0 0.25 0"/>
<feBlend mode="hard-light" in2="BackgroundImageFix" result="effect1_dropShadow_362_27"/>
<feBlend mode="normal" in="SourceGraphic" in2="effect1_dropShadow_362_27" result="shape"/>
</filter>
</defs>
</svg>
